<svg aria-hidden="true" style="width:0;height:0;position:absolute;overflow:hidden" xmlns="http://www.w3.org/2000/svg"><defs><symbol id="icon-delay" viewBox="0 0 32 32"><path d="M3 16v-.001c0-7.18 5.82-13 13-13 .172 0 .342.003.512.01l-.024-.001A1.5 1.5 0 0 0 16.601.01h-.003a15.475 15.475 0 0 0-.594-.011c-8.837 0-16 7.163-16 16s7.163 16 16 16c6.523 0 12.134-3.903 14.625-9.501l.04-.102a1.5 1.5 0 0 0-2.746-1.209l-.004.01c-.17.389-.318.686-.475.977l.035-.071c-2.231 4.136-6.533 6.9-11.48 6.9-7.18 0-13-5.82-13-13v-.002zM21.452 2.476a1.502 1.502 0 0 1 2.034-.62l-.008-.004c.354.188.7.388 1.036.6a1.5 1.5 0 1 1-1.604 2.536l.006.004c-.216-.14-.49-.302-.771-.454l-.069-.034a1.502 1.502 0 0 1-.621-2.036l-.004.008zm6.028 4.54a1.501 1.501 0 0 1 2.065.464l.004.006c.212.336.412.68.6 1.036a1.5 1.5 0 0 1-2.648 1.412l-.004-.008a12.045 12.045 0 0 0-.517-.894l.031.052a1.501 1.501 0 0 1 .464-2.065l.006-.004zm2.954 6.942.055-.001a1.5 1.5 0 0 1 1.499 1.442v.003a16.243 16.243 0 0 1 .004 1.129l.001-.025a1.502 1.502 0 0 1-3.001-.047l.001-.049v.002a12.426 12.426 0 0 0 0-.923l.001.023-.001-.055a1.5 1.5 0 0 1 1.44-1.499h.003z"/><path d="M15.5 6A1.5 1.5 0 0 1 17 7.5v7.572l4.17 2.086a1.5 1.5 0 1 1-1.349 2.68l.008.004-5-2.5a1.503 1.503 0 0 1-.83-1.342V7.5a1.5 1.5 0 0 1 1.5-1.5z"/></symbol><symbol id="icon-amount" viewBox="0 0 32 32"><path d="M29.752 5.637 16.381.076a.994.994 0 0 0-.761 0L2.249 5.637a.991.991 0 0 0-.611.915v24.457c0 .547.444.991.991.991h26.742a.991.991 0 0 0 .991-.991V6.553c0-.4-.241-.761-.611-.915zM28.38 30.018H3.621V7.214l12.38-5.149 12.38 5.149v22.804z"/><path d="m10.894 13.526-4.201 4.201a.992.992 0 0 0 1.402 1.402l4.201-4.201a1.946 1.946 0 0 1 2.613-.133 3.923 3.923 0 0 0 5.267-.267l3.438-3.438v1.12a.991.991 0 0 0 1.982 0V8.712a.991.991 0 0 0-.991-.991h-3.498a.991.991 0 0 0 0 1.982h1.09l-3.424 3.424a1.946 1.946 0 0 1-2.613.133 3.921 3.921 0 0 0-5.267.267zM26.017 23.241H5.983a.991.991 0 0 0 0 1.982h20.034a.991.991 0 0 0 0-1.982z"/></symbol><symbol id="icon-step" viewBox="0 0 32 32"><path d="M19.168 8.872a9.317 9.317 0 0 0-2.551-1.184c-.483-.138-.987-.207-1.486-.263a12.462 12.462 0 0 0-1.406-.093h-.062c-.872.008-1.707.37-2.42.849-.235.157-.453.345-.673.521-.402.326-.726.748-1.01 1.177-.265.402-.464.849-.658 1.291-.22.5-.413 1.01-.586 1.529-.297.906-.455 1.874-.536 2.821a19.153 19.153 0 0 0-.04 2.884 20.5 20.5 0 0 0 .413 2.958c.207.946.44 1.889.767 2.802.176.489.407.962.631 1.431.18.383.379.756.587 1.124.462.819.993 1.626 1.703 2.251.406.358.908.604 1.419.775.493.165 1 .241 1.52.254.468.011.936-.036 1.397-.125.333-.064.654-.188.961-.332.148-.07.303-.191.424-.297.127-.11.233-.226.33-.366.227-.333.347-.714.39-1.114.049-.46.002-.93-.051-1.389-.055-.477-.116-.955-.172-1.432a23.403 23.403 0 0 1-.135-2.166c-.018-.698-.017-1.39.059-2.083.073-.469.177-.932.291-1.394.112-.448.24-.899.409-1.331l.054-.117c.113-.046.214-.117.321-.2.904-.712 1.855-1.506 2.228-2.638a8.289 8.289 0 0 0 .386-2.141c.023-.407-.07-.813-.182-1.201-.349-1.218-1.289-2.128-2.322-2.801zm.739 4.566c-.07.391-.169.775-.307 1.148a3.237 3.237 0 0 1-.274.45c-.447.509-.967.926-1.502 1.342a.845.845 0 0 0-.451.371c-.364.629-.62 1.317-.811 2.018a12.193 12.193 0 0 0-.409 2.329c-.053.739.002 1.491.04 2.229.04.754.156 1.501.261 2.247l-.013-.1c.092.704.228 1.438.168 2.151-.008.038-.019.075-.03.112-.024.047-.05.093-.078.137l-.017.017a1.947 1.947 0 0 1-.147.086c-.18.06-.361.1-.548.133a7.541 7.541 0 0 1-1.31.006 4.875 4.875 0 0 1-.828-.233 3.729 3.729 0 0 1-.537-.302 5.12 5.12 0 0 1-.58-.607 11.101 11.101 0 0 1-.512-.729 13.38 13.38 0 0 1-.483-.847 23.71 23.71 0 0 1-.83-1.704c-.526-1.371-.863-2.817-1.088-4.264a18.189 18.189 0 0 1-.144-2.126c0-.732.067-1.452.156-2.176.071-.423.144-.847.259-1.261.129-.468.285-.923.46-1.375.273-.634.57-1.258.974-1.818.22-.259.462-.481.724-.693.294-.213.593-.403.919-.558.197-.066.396-.117.599-.158a7.584 7.584 0 0 1 1.087-.004c.325.018.65.045.973.081a7.877 7.877 0 0 1 1.561.405 8.883 8.883 0 0 1 1.467.833c.269.215.53.44.756.701.126.177.236.362.331.561.086.229.154.463.203.702a4.63 4.63 0 0 1-.039.896zM8.153 8.78c.04-.055.064-.123.093-.186.125-.277.199-.559.194-.868-.006-.299-.117-.58-.237-.849a1.465 1.465 0 0 0-.375-.481 1.712 1.712 0 0 0-.366-.26.879.879 0 0 0-.627-.07.743.743 0 0 0-.29-.061.687.687 0 0 0-.213.034c-.254.083-.5.184-.724.332a1.468 1.468 0 0 0-.365.364c-.102.135-.161.281-.226.436a1.424 1.424 0 0 0-.079.366c-.029.197-.048.384-.029.583.03.326.15.631.375.875.146.16.33.283.52.385.256.141.519.216.811.23.246.011.481-.057.705-.15.078-.03.154-.062.229-.097.116-.051.208-.138.309-.216.119-.093.21-.246.295-.367zM6.86 7.995l-.021.036a.523.523 0 0 1-.023.025l-.048.024a1.653 1.653 0 0 1-.114.035h-.017c-.005 0-.01-.002-.015-.004a1.784 1.784 0 0 1-.176-.11l-.002-.004a2.426 2.426 0 0 1 .008-.226l.022-.094a.759.759 0 0 1 .049-.026c.076-.029.154-.055.232-.081l.012-.004a.088.088 0 0 0 .01.006l.043.043.046.078c.016.045.029.09.041.136a1.764 1.764 0 0 1-.047.166zm3.393-2.942c.001-.001.001-.001 0 0 .001-.001 0-.001 0 0zm-1.171 1.53c.105.091.218.17.328.252.121.091.279.133.417.188.08.027.161.044.246.051.152.025.297.038.449.042.133.004.305-.036.434-.074.14-.042.273-.11.404-.173.078-.042.152-.091.222-.148a2.1 2.1 0 0 0 .326-.29 2.2 2.2 0 0 0 .305-.462c.169-.33.26-.696.212-1.065a1.966 1.966 0 0 0-.097-.458c-.038-.105-.083-.206-.127-.306-.053-.123-.155-.222-.239-.324a2.23 2.23 0 0 0-.254-.21 2.29 2.29 0 0 0-1.154-.391.693.693 0 0 0-.475.176.754.754 0 0 0-.61.101 2.246 2.246 0 0 0-.498.444c-.106.133-.18.237-.248.388a2.98 2.98 0 0 0-.159.451c-.108.43-.078.851.108 1.252.098.214.23.402.41.556zm1.166-1.527a.566.566 0 0 1 .066-.082l-.06.078a.022.022 0 0 0 .005-.004l-.006.004-.002.003.001-.001-.004.002zm.08-.057.016-.012a1.14 1.14 0 0 0 .261-.241c.051.013.102.028.153.046.031.016.06.034.09.053l.009.009c.016.05.03.101.042.152l.001.075-.028.092a2.858 2.858 0 0 1-.088.152c-.028.03-.057.059-.087.088a.918.918 0 0 1-.068.039 1.429 1.429 0 0 1-.111.035 1.428 1.428 0 0 1-.156-.04 3.32 3.32 0 0 1-.134-.131l-.008-.015-.012-.04V5.21c.01-.043.021-.085.033-.128a2.29 2.29 0 0 1 .087-.083zm-.09.065-.043.033.043-.033zm3.467.692c.116.119.244.242.387.33.246.154.525.265.811.326.28.059.548.042.828-.006.178-.029.345-.074.513-.144.133-.055.227-.099.341-.174.104-.07.201-.152.298-.231.481-.39.646-.993.692-1.586.011-.153-.009-.307-.028-.46-.032-.258-.057-.547-.199-.775-.178-.282-.39-.54-.669-.728a1.715 1.715 0 0 0-.258-.146c-.222-.108-.434-.136-.675-.159C15.732 2 15.717 2 15.702 2a.693.693 0 0 0-.301.077.942.942 0 0 0-.535-.031c-.196.036-.386.13-.556.229-.216.121-.4.297-.559.485a2.379 2.379 0 0 0-.358.604c-.068.159-.121.303-.159.47s-.049.352-.055.523c-.015.354.11.68.243.997.056.135.185.301.283.402zm1.207-1.803c.022-.043.045-.085.07-.127l.059-.062a2.37 2.37 0 0 1 .139-.079 1.26 1.26 0 0 1 .128-.033.573.573 0 0 0 .185-.07c.074.023.153.036.236.044l.022.005.063.034c.048.044.094.091.138.14l.017.072c.015.146.02.289.013.435-.014.062-.03.121-.049.181a1.22 1.22 0 0 1-.058.099l-.039.038a2.383 2.383 0 0 1-.157.105 2.027 2.027 0 0 1-.204.051 1.906 1.906 0 0 1-.2.001 3.67 3.67 0 0 1-.203-.064.898.898 0 0 1-.067-.039 1.505 1.505 0 0 1-.057-.056 2.061 2.061 0 0 1-.069-.12 1.86 1.86 0 0 1-.027-.107 2.38 2.38 0 0 1-.002-.239c.018-.07.038-.139.062-.209zm7.498 1.349a2.336 2.336 0 0 0-.085-.625 2.826 2.826 0 0 0-.25-.589c-.059-.108-.142-.207-.218-.303a2.124 2.124 0 0 0-.409-.377c-.163-.123-.434-.133-.622-.08a.525.525 0 0 0-.067.022.79.79 0 0 0-.552-.23h-.01a1.914 1.914 0 0 0-.752.184c-.231.1-.419.233-.61.398-.165.14-.294.333-.415.51a2.73 2.73 0 0 0-.343.8c-.152.548-.066 1.209.256 1.683.309.455.805.718 1.336.823.335.066.652.055.987-.004.237-.04.462-.146.68-.243.138-.062.256-.182.373-.275.112-.091.222-.248.301-.366.135-.199.229-.406.307-.635.074-.216.087-.466.093-.693zm-2.311-.558c.017-.002.033-.006.05-.007a.858.858 0 0 1-.05.007zm-.001 0-.074.01c.025-.005.05-.007.074-.01zm.704.648c-.015.076-.033.15-.055.224a2.582 2.582 0 0 1-.079.133c-.028.03-.056.059-.085.086l-.011.006a2.533 2.533 0 0 1-.255.07 1.944 1.944 0 0 1-.187 0 1.991 1.991 0 0 1-.273-.071 1.297 1.297 0 0 1-.095-.055.545.545 0 0 1-.034-.034l-.017-.03a1.692 1.692 0 0 1-.043-.159 2.16 2.16 0 0 1 .002-.213c.016-.073.035-.144.058-.214.037-.074.077-.144.122-.213a1.36 1.36 0 0 1 .092-.094l.064-.037c.06-.02.12-.039.183-.055h.009a.833.833 0 0 0 .291-.058c.025.024.052.047.08.07.023.022.046.044.067.067.044.066.084.134.12.204.019.055.035.11.049.167a2.36 2.36 0 0 1-.003.206zm5.935 1.792c-.095-.186-.26-.354-.409-.496a1.663 1.663 0 0 0-.464-.302 2.727 2.727 0 0 0-.544-.178c-.163-.036-.332-.051-.498-.072a.755.755 0 0 0-.083.005.774.774 0 0 0-.452-.02 2.566 2.566 0 0 0-.97.458c-.237.189-.421.436-.595.682-.341.481-.54 1.025-.531 1.62.006.371.099.743.25 1.08.08.176.176.32.297.472.123.151.277.263.434.379.131.095.303.163.453.216.169.061.339.1.517.129.207.032.411.059.62.057.203 0 .411-.038.61-.079.343-.074.658-.269.923-.491.106-.091.191-.178.279-.288a2.1 2.1 0 0 0 .324-.591c.064-.161.093-.337.121-.506.032-.195.061-.39.074-.587.035-.521-.123-1.027-.356-1.488zm-1.313 1.649a2.796 2.796 0 0 1-.113.45.229.229 0 0 0-.009.016 1.66 1.66 0 0 1-.111.111c-.04.027-.08.052-.122.075a2.198 2.198 0 0 1-.164.045 2.044 2.044 0 0 1-.303-.002 3.279 3.279 0 0 1-.404-.104 1.59 1.59 0 0 1-.125-.075 1.532 1.532 0 0 1-.057-.057 1.765 1.765 0 0 1-.088-.152 2.84 2.84 0 0 1-.095-.354 2.279 2.279 0 0 1-.002-.274c.018-.088.04-.174.069-.259.067-.137.145-.266.232-.39a1.87 1.87 0 0 1 .138-.143l.084-.047c.076.054.16.094.246.107.176.03.35.064.52.12.031.016.06.034.09.052l.057.057c.028.044.053.088.077.133.031.096.059.191.082.29.01.133.011.267-.002.401z"/></symbol><symbol id="icon-close" viewBox="0 0 32 32"><path d="m23.954 21.03-9.184-9.095 9.092-9.174L21.03-.046l-9.09 9.179L2.764.045l-2.81 2.81L9.14 11.96.045 21.144l2.81 2.81 9.112-9.192 9.18 9.1z"/></symbol></defs></svg>