<svg aria-hidden="true" style="position: absolute; width: 0; height: 0; overflow: hidden;" version="1.1"
    xmlns="http://www.w3.org/2000/svg" xmlns:xlink="http://www.w3.org/1999/xlink">
    <defs>
<symbol id="icon-delay" viewBox="0 0 32 32">
<path d="M3 16c0-0 0-0.001 0-0.001 0-7.18 5.82-13 13-13 0.172 0 0.342 0.003 0.512 0.010l-0.024-0.001c0.016 0.001 0.036 0.001 0.055 0.001 0.828 0 1.5-0.672 1.5-1.5 0-0.809-0.641-1.469-1.442-1.499l-0.003-0c-0.177-0.007-0.385-0.011-0.594-0.011-8.837 0-16 7.163-16 16s7.163 16 16 16c6.523 0 12.134-3.903 14.625-9.501l0.040-0.102c0.079-0.177 0.125-0.383 0.125-0.6 0-0.829-0.672-1.5-1.5-1.5-0.611 0-1.138 0.366-1.371 0.891l-0.004 0.010c-0.17 0.389-0.318 0.686-0.475 0.977l0.035-0.071c-2.231 4.136-6.533 6.9-11.48 6.9-7.18 0-13-5.82-13-13 0-0.001 0-0.001 0-0.002v0zM21.452 2.476c0.257-0.478 0.754-0.798 1.325-0.798 0.256 0 0.498 0.064 0.709 0.178l-0.008-0.004c0.354 0.188 0.7 0.388 1.036 0.6 0.424 0.27 0.701 0.738 0.701 1.27 0 0.829-0.672 1.5-1.5 1.5-0.296 0-0.572-0.086-0.805-0.234l0.006 0.004c-0.216-0.14-0.49-0.302-0.771-0.454l-0.069-0.034c-0.479-0.257-0.799-0.754-0.799-1.326 0-0.257 0.065-0.499 0.178-0.71l-0.004 0.008zM27.48 7.016c0.227-0.145 0.503-0.23 0.799-0.23 0.532 0 0.999 0.277 1.266 0.694l0.004 0.006c0.212 0.336 0.412 0.68 0.6 1.036 0.11 0.203 0.174 0.445 0.174 0.702 0 0.829-0.672 1.5-1.5 1.5-0.572 0-1.069-0.32-1.322-0.79l-0.004-0.008c-0.185-0.351-0.346-0.626-0.517-0.894l0.031 0.052c-0.145-0.226-0.23-0.503-0.23-0.799 0-0.532 0.277-0.999 0.694-1.266l0.006-0.004zM30.434 13.958c0.016-0.001 0.036-0.001 0.055-0.001 0.809 0 1.469 0.641 1.499 1.442l0 0.003c0.007 0.182 0.012 0.396 0.012 0.61 0 0.174-0.003 0.347-0.008 0.519l0.001-0.025c-0.026 0.808-0.688 1.454-1.5 1.454-0.829 0-1.501-0.672-1.501-1.501 0-0.017 0-0.033 0.001-0.049l-0 0.002c0.005-0.134 0.008-0.292 0.008-0.45s-0.003-0.316-0.008-0.473l0.001 0.023c-0.001-0.016-0.001-0.036-0.001-0.055 0-0.808 0.639-1.467 1.44-1.499l0.003-0z"></path>
<path d="M15.5 6c0.828 0 1.5 0.672 1.5 1.5v0 7.572l4.17 2.086c0.502 0.25 0.84 0.759 0.84 1.347 0 0.828-0.672 1.5-1.5 1.5-0.248 0-0.483-0.060-0.689-0.167l0.008 0.004-5-2.5c-0.496-0.252-0.83-0.758-0.83-1.342v0-8.5c0-0.828 0.672-1.5 1.5-1.5v0z"></path>
</symbol>
    <symbol id="icon-amount" viewBox="0 0 32 32">
        <path d="M29.752 5.637l-13.371-5.561c-0.244-0.101-0.518-0.101-0.761 0l-13.371 5.561c-0.37 0.154-0.611 0.515-0.611 0.915v24.457c0 0.547 0.444 0.991 0.991 0.991h26.742c0.547 0 0.991-0.444 0.991-0.991v-24.456c0-0.4-0.241-0.761-0.611-0.915zM28.38 30.018h-24.759v-22.804l12.38-5.149 12.38 5.149v22.804z"></path>
        <path d="M10.894 13.526l-4.201 4.201c-0.387 0.387-0.387 1.015 0 1.402 0.194 0.194 0.447 0.29 0.701 0.29s0.507-0.097 0.701-0.29l4.201-4.201c0.711-0.711 1.834-0.768 2.613-0.133 1.57 1.28 3.835 1.165 5.267-0.267l3.438-3.438v1.12c0 0.547 0.444 0.991 0.991 0.991s0.991-0.444 0.991-0.991v-3.498c0-0.547-0.444-0.991-0.991-0.991h-3.498c-0.547 0-0.991 0.444-0.991 0.991s0.444 0.991 0.991 0.991h1.090l-3.424 3.424c-0.711 0.711-1.834 0.768-2.613 0.133-1.57-1.281-3.835-1.166-5.267 0.267z"></path>

        <path d="M26.017 23.241h-20.034c-0.547 0-0.991 0.444-0.991 0.991s0.444 0.991 0.991 0.991h20.034c0.547 0 0.991-0.444 0.991-0.991s-0.444-0.991-0.991-0.991z"></path>

</symbol>



       
<symbol id="icon-step" viewBox="0 0 32 32">
<path d="M19.168 8.872c-0.788-0.515-1.645-0.928-2.551-1.184-0.483-0.138-0.987-0.207-1.486-0.263-0.466-0.053-0.936-0.093-1.406-0.093-0.021 0-0.042 0-0.062 0-0.872 0.008-1.707 0.37-2.42 0.849-0.235 0.157-0.453 0.345-0.673 0.521-0.402 0.326-0.726 0.748-1.010 1.177-0.265 0.402-0.464 0.849-0.658 1.291-0.22 0.5-0.413 1.010-0.586 1.529-0.297 0.906-0.455 1.874-0.536 2.821-0.081 0.965-0.104 1.919-0.040 2.884 0.068 0.989 0.201 1.988 0.413 2.958 0.207 0.946 0.44 1.889 0.767 2.802 0.176 0.489 0.407 0.962 0.631 1.431 0.18 0.383 0.379 0.756 0.587 1.124 0.462 0.819 0.993 1.626 1.703 2.251 0.406 0.358 0.908 0.604 1.419 0.775 0.493 0.165 1 0.241 1.52 0.254 0.468 0.011 0.936-0.036 1.397-0.125 0.333-0.064 0.654-0.188 0.961-0.332 0.148-0.070 0.303-0.191 0.424-0.297 0.127-0.11 0.233-0.226 0.33-0.366 0.227-0.333 0.347-0.714 0.39-1.114 0.049-0.46 0.002-0.93-0.051-1.389-0.055-0.477-0.116-0.955-0.172-1.432-0.085-0.72-0.117-1.442-0.135-2.166-0.018-0.698-0.017-1.39 0.059-2.083 0.073-0.469 0.177-0.932 0.291-1.394 0.112-0.448 0.24-0.899 0.409-1.331 0.018-0.039 0.036-0.078 0.054-0.117 0.113-0.046 0.214-0.117 0.321-0.2 0.904-0.712 1.855-1.506 2.228-2.638 0.165-0.504 0.267-1.008 0.335-1.533 0.026-0.203 0.040-0.406 0.051-0.608 0.023-0.407-0.070-0.813-0.182-1.201-0.349-1.218-1.289-2.128-2.322-2.801zM19.907 13.438c-0.070 0.391-0.169 0.775-0.307 1.148-0.078 0.159-0.171 0.305-0.274 0.45-0.447 0.509-0.967 0.926-1.502 1.342-0.184 0.065-0.347 0.192-0.451 0.371-0.364 0.629-0.62 1.317-0.811 2.018-0.208 0.764-0.352 1.539-0.409 2.329-0.053 0.739 0.002 1.491 0.040 2.229 0.040 0.754 0.156 1.501 0.261 2.247-0.004-0.033-0.009-0.067-0.013-0.1 0.092 0.704 0.228 1.438 0.168 2.151-0.008 0.038-0.019 0.075-0.030 0.112-0.024 0.047-0.050 0.093-0.078 0.137-0.006 0.006-0.012 0.011-0.017 0.017-0.048 0.031-0.096 0.059-0.147 0.086-0.18 0.060-0.361 0.1-0.548 0.133-0.436 0.043-0.874 0.039-1.31 0.006-0.284-0.053-0.557-0.131-0.828-0.233-0.188-0.087-0.365-0.185-0.537-0.302-0.211-0.187-0.402-0.388-0.58-0.607-0.179-0.238-0.353-0.478-0.512-0.729-0.174-0.275-0.33-0.561-0.483-0.847-0.299-0.556-0.576-1.125-0.83-1.704-0.526-1.371-0.863-2.817-1.088-4.264-0.085-0.706-0.142-1.413-0.144-2.126 0-0.732 0.067-1.452 0.156-2.176 0.071-0.423 0.144-0.847 0.259-1.261 0.129-0.468 0.285-0.923 0.46-1.375 0.273-0.634 0.57-1.258 0.974-1.818 0.22-0.259 0.462-0.481 0.724-0.693 0.294-0.213 0.593-0.403 0.919-0.558 0.197-0.066 0.396-0.117 0.599-0.158 0.359-0.032 0.728-0.024 1.087-0.004 0.325 0.018 0.65 0.045 0.973 0.081 0.535 0.086 1.053 0.212 1.561 0.405 0.516 0.235 1.004 0.505 1.467 0.833 0.269 0.215 0.53 0.44 0.756 0.701 0.126 0.177 0.236 0.362 0.331 0.561 0.086 0.229 0.154 0.463 0.203 0.702 0.021 0.301-0.002 0.597-0.039 0.896zM8.153 8.78c0.040-0.055 0.064-0.123 0.093-0.186 0.125-0.277 0.199-0.559 0.194-0.868-0.006-0.299-0.117-0.58-0.237-0.849-0.080-0.184-0.227-0.349-0.375-0.481-0.11-0.101-0.233-0.191-0.366-0.26-0.201-0.102-0.425-0.125-0.627-0.070-0.092-0.039-0.19-0.061-0.29-0.061-0.071 0-0.142 0.011-0.213 0.034-0.254 0.083-0.5 0.184-0.724 0.332-0.155 0.105-0.253 0.216-0.365 0.364-0.102 0.135-0.161 0.281-0.226 0.436-0.047 0.112-0.064 0.246-0.079 0.366-0.029 0.197-0.048 0.384-0.029 0.583 0.030 0.326 0.15 0.631 0.375 0.875 0.146 0.16 0.33 0.283 0.52 0.385 0.256 0.141 0.519 0.216 0.811 0.23 0.246 0.011 0.481-0.057 0.705-0.15 0.078-0.030 0.154-0.062 0.229-0.097 0.116-0.051 0.208-0.138 0.309-0.216 0.119-0.093 0.21-0.246 0.295-0.367zM6.86 7.995c-0.007 0.012-0.014 0.024-0.021 0.036-0.007 0.008-0.015 0.017-0.023 0.025-0.016 0.008-0.032 0.016-0.048 0.024-0.038 0.013-0.076 0.025-0.114 0.035-0.006 0-0.012 0-0.017 0s-0.010-0.002-0.015-0.004c-0.061-0.033-0.119-0.070-0.176-0.11 0-0.001-0.001-0.002-0.002-0.004-0.001-0.076 0.002-0.151 0.008-0.226 0.007-0.031 0.014-0.063 0.022-0.094 0.016-0.009 0.032-0.018 0.049-0.026 0.076-0.029 0.154-0.055 0.232-0.081 0.004-0.001 0.008-0.003 0.012-0.004 0.003 0.002 0.006 0.004 0.010 0.006 0.014 0.015 0.029 0.029 0.043 0.043 0.016 0.026 0.031 0.052 0.046 0.078 0.016 0.045 0.029 0.090 0.041 0.136-0.013 0.057-0.029 0.112-0.047 0.166zM10.253 5.053v0c0.001-0.001 0.001-0.001 0 0v0c0.001-0.001 0-0.001 0 0zM9.082 6.583c0.105 0.091 0.218 0.17 0.328 0.252 0.121 0.091 0.279 0.133 0.417 0.188 0.080 0.027 0.161 0.044 0.246 0.051 0.152 0.025 0.297 0.038 0.449 0.042 0.133 0.004 0.305-0.036 0.434-0.074 0.14-0.042 0.273-0.11 0.404-0.173 0.078-0.042 0.152-0.091 0.222-0.148 0.123-0.091 0.225-0.178 0.326-0.29 0.123-0.14 0.222-0.298 0.305-0.462 0.169-0.33 0.26-0.696 0.212-1.065-0.019-0.159-0.042-0.309-0.097-0.458-0.038-0.105-0.083-0.206-0.127-0.306-0.053-0.123-0.155-0.222-0.239-0.324-0.080-0.076-0.163-0.146-0.254-0.21-0.169-0.112-0.356-0.212-0.551-0.275-0.127-0.042-0.252-0.074-0.383-0.095-0.076-0.013-0.149-0.021-0.22-0.021-0.125 0-0.245 0.026-0.365 0.097-0.039 0.023-0.076 0.049-0.11 0.079-0.207-0.049-0.429-0.025-0.61 0.101-0.188 0.131-0.356 0.265-0.498 0.444-0.106 0.133-0.18 0.237-0.248 0.388-0.066 0.15-0.117 0.292-0.159 0.451-0.108 0.43-0.078 0.851 0.108 1.252 0.098 0.214 0.23 0.402 0.41 0.556zM10.248 5.056c0.002-0.001 0.003-0.002 0.005-0.004 0.018-0.027 0.038-0.054 0.061-0.078-0.020 0.026-0.040 0.052-0.060 0.078 0.002-0.001 0.004-0.003 0.005-0.004-0.002 0.001-0.004 0.003-0.006 0.004-0.001 0.001-0.001 0.002-0.002 0.003 0-0.001 0.001-0.001 0.001-0.001s-0.002 0.001-0.004 0.002v0zM10.328 4.999c0.005-0.004 0.011-0.008 0.016-0.012 0.102-0.071 0.191-0.149 0.261-0.241 0.051 0.013 0.102 0.028 0.153 0.046 0.031 0.016 0.060 0.034 0.090 0.053 0.003 0.003 0.006 0.006 0.009 0.009 0.016 0.050 0.030 0.101 0.042 0.152 0.001 0.025 0.001 0.050 0.001 0.075-0.009 0.031-0.018 0.062-0.028 0.092-0.028 0.052-0.057 0.102-0.088 0.152-0.028 0.030-0.057 0.059-0.087 0.088-0.022 0.014-0.045 0.027-0.068 0.039-0.037 0.013-0.073 0.025-0.111 0.035-0.053-0.011-0.104-0.023-0.156-0.040-0.046-0.043-0.091-0.086-0.134-0.131-0.003-0.005-0.005-0.010-0.008-0.015-0.004-0.013-0.008-0.026-0.012-0.040 0-0.017 0-0.034 0-0.051 0.010-0.043 0.021-0.085 0.033-0.128 0.028-0.028 0.057-0.056 0.087-0.083zM10.238 5.064v0c-0.015 0.012-0.029 0.022-0.043 0.033 0.014-0.011 0.028-0.022 0.043-0.033zM13.705 5.756c0.116 0.119 0.244 0.242 0.387 0.33 0.246 0.154 0.525 0.265 0.811 0.326 0.28 0.059 0.548 0.042 0.828-0.006 0.178-0.029 0.345-0.074 0.513-0.144 0.133-0.055 0.227-0.099 0.341-0.174 0.104-0.070 0.201-0.152 0.298-0.231 0.481-0.39 0.646-0.993 0.692-1.586 0.011-0.153-0.009-0.307-0.028-0.46-0.032-0.258-0.057-0.547-0.199-0.775-0.178-0.282-0.39-0.54-0.669-0.728-0.083-0.059-0.165-0.101-0.258-0.146-0.222-0.108-0.434-0.136-0.675-0.159-0.014-0.003-0.029-0.003-0.044-0.003-0.101 0-0.206 0.030-0.301 0.077-0.172-0.068-0.347-0.066-0.535-0.031-0.196 0.036-0.386 0.13-0.556 0.229-0.216 0.121-0.4 0.297-0.559 0.485-0.157 0.186-0.261 0.383-0.358 0.604-0.068 0.159-0.121 0.303-0.159 0.47s-0.049 0.352-0.055 0.523c-0.015 0.354 0.11 0.68 0.243 0.997 0.056 0.135 0.185 0.301 0.283 0.402zM14.912 3.953c0.022-0.043 0.045-0.085 0.070-0.127 0.019-0.021 0.039-0.042 0.059-0.062 0.046-0.028 0.091-0.054 0.139-0.079 0.041-0.013 0.084-0.024 0.128-0.033 0.063-0.011 0.126-0.036 0.185-0.070 0.074 0.023 0.153 0.036 0.236 0.044 0.007 0.002 0.014 0.003 0.022 0.005 0.021 0.011 0.042 0.022 0.063 0.034 0.048 0.044 0.094 0.091 0.138 0.14 0.006 0.024 0.012 0.048 0.017 0.072 0.015 0.146 0.020 0.289 0.013 0.435-0.014 0.062-0.030 0.121-0.049 0.181-0.018 0.034-0.037 0.067-0.058 0.099-0.013 0.013-0.026 0.025-0.039 0.038-0.051 0.037-0.103 0.072-0.157 0.105-0.067 0.021-0.135 0.037-0.204 0.051-0.067 0.004-0.133 0.004-0.2 0.001-0.069-0.019-0.135-0.041-0.203-0.064-0.023-0.012-0.045-0.025-0.067-0.039-0.019-0.018-0.039-0.037-0.057-0.056-0.025-0.040-0.047-0.079-0.069-0.12-0.010-0.035-0.019-0.071-0.027-0.107-0.005-0.080-0.005-0.158-0.002-0.239 0.018-0.070 0.038-0.139 0.062-0.209zM22.41 5.302c0.006-0.207-0.034-0.422-0.085-0.625-0.055-0.203-0.15-0.404-0.25-0.589-0.059-0.108-0.142-0.207-0.218-0.303-0.119-0.152-0.256-0.26-0.409-0.377-0.163-0.123-0.434-0.133-0.622-0.080-0.023 0.006-0.045 0.013-0.067 0.022-0.144-0.141-0.339-0.23-0.552-0.23-0.003 0-0.007 0-0.010 0-0.271 0.004-0.508 0.078-0.752 0.184-0.231 0.1-0.419 0.233-0.61 0.398-0.165 0.14-0.294 0.333-0.415 0.51-0.161 0.239-0.267 0.523-0.343 0.8-0.152 0.548-0.066 1.209 0.256 1.683 0.309 0.455 0.805 0.718 1.336 0.823 0.335 0.066 0.652 0.055 0.987-0.004 0.237-0.040 0.462-0.146 0.68-0.243 0.138-0.062 0.256-0.182 0.373-0.275 0.112-0.091 0.222-0.248 0.301-0.366 0.135-0.199 0.229-0.406 0.307-0.635 0.074-0.216 0.087-0.466 0.093-0.693zM20.099 4.744c0.017-0.002 0.033-0.006 0.050-0.007-0.017 0.003-0.033 0.005-0.050 0.007v0zM20.098 4.744v0c-0.025 0.003-0.049 0.007-0.074 0.010 0.025-0.005 0.050-0.007 0.074-0.010zM20.802 5.392c-0.015 0.076-0.033 0.15-0.055 0.224-0.025 0.045-0.051 0.089-0.079 0.133-0.028 0.030-0.056 0.059-0.085 0.086-0.004 0.002-0.007 0.004-0.011 0.006-0.084 0.028-0.169 0.051-0.255 0.070-0.062 0.003-0.124 0.003-0.187 0-0.093-0.018-0.183-0.040-0.273-0.071-0.032-0.017-0.064-0.035-0.095-0.055-0.012-0.011-0.023-0.022-0.034-0.034-0.006-0.010-0.012-0.020-0.017-0.030-0.017-0.052-0.031-0.105-0.043-0.159-0.003-0.072-0.002-0.142 0.002-0.213 0.016-0.073 0.035-0.144 0.058-0.214 0.037-0.074 0.077-0.144 0.122-0.213 0.029-0.033 0.060-0.064 0.092-0.094 0.021-0.013 0.042-0.025 0.064-0.037 0.060-0.020 0.12-0.039 0.183-0.055 0.003 0 0.006 0 0.009 0 0.102-0.002 0.2-0.022 0.291-0.058 0.025 0.024 0.052 0.047 0.080 0.070 0.023 0.022 0.046 0.044 0.067 0.067 0.044 0.066 0.084 0.134 0.12 0.204 0.019 0.055 0.035 0.11 0.049 0.167 0.002 0.069 0.001 0.137-0.003 0.206zM26.737 7.184c-0.095-0.186-0.26-0.354-0.409-0.496-0.135-0.127-0.297-0.228-0.464-0.302-0.18-0.078-0.351-0.138-0.544-0.178-0.163-0.036-0.332-0.051-0.498-0.072-0.028 0-0.056 0.002-0.083 0.005-0.082-0.029-0.169-0.045-0.258-0.045-0.064 0-0.129 0.008-0.194 0.025-0.354 0.091-0.682 0.231-0.97 0.458-0.237 0.189-0.421 0.436-0.595 0.682-0.341 0.481-0.54 1.025-0.531 1.62 0.006 0.371 0.099 0.743 0.25 1.080 0.080 0.176 0.176 0.32 0.297 0.472 0.123 0.151 0.277 0.263 0.434 0.379 0.131 0.095 0.303 0.163 0.453 0.216 0.169 0.061 0.339 0.1 0.517 0.129 0.207 0.032 0.411 0.059 0.62 0.057 0.203 0 0.411-0.038 0.61-0.079 0.343-0.074 0.658-0.269 0.923-0.491 0.106-0.091 0.191-0.178 0.279-0.288 0.154-0.191 0.233-0.364 0.324-0.591 0.064-0.161 0.093-0.337 0.121-0.506 0.032-0.195 0.061-0.39 0.074-0.587 0.035-0.521-0.123-1.027-0.356-1.488zM25.424 8.833c-0.026 0.153-0.062 0.303-0.113 0.45-0.003 0.005-0.006 0.010-0.009 0.016-0.035 0.039-0.072 0.075-0.111 0.111-0.040 0.027-0.080 0.052-0.122 0.075-0.054 0.017-0.108 0.032-0.164 0.045-0.101 0.007-0.201 0.006-0.303-0.002-0.138-0.027-0.271-0.060-0.404-0.104-0.043-0.023-0.084-0.048-0.125-0.075-0.020-0.019-0.039-0.038-0.057-0.057-0.032-0.049-0.061-0.1-0.088-0.152-0.039-0.116-0.071-0.233-0.095-0.354-0.006-0.092-0.007-0.183-0.002-0.274 0.018-0.088 0.040-0.174 0.069-0.259 0.067-0.137 0.145-0.266 0.232-0.39 0.044-0.051 0.090-0.098 0.138-0.143 0.028-0.016 0.056-0.032 0.084-0.047 0.076 0.054 0.16 0.094 0.246 0.107 0.176 0.030 0.35 0.064 0.52 0.12 0.031 0.016 0.060 0.034 0.090 0.052 0.019 0.019 0.038 0.038 0.057 0.057 0.028 0.044 0.053 0.088 0.077 0.133 0.031 0.096 0.059 0.191 0.082 0.29 0.010 0.133 0.011 0.267-0.002 0.401z"></path>
</symbol>

<svg xmlns="http://www.w3.org/2000/svg" xml:space="preserve" width="999.2" height="776"><path d="M181.1 774.3v-51.5c0-19.7-12-32.6-32.6-32.6-10.3 0-21.5 3.4-29.2 14.6-6-9.4-14.6-14.6-27.5-14.6-8.6 0-17.2 2.6-24 12v-10.3h-18v82.4h18v-45.5c0-14.6 7.7-21.5 19.7-21.5s18 7.7 18 21.5v45.5h18v-45.5c0-14.6 8.6-21.5 19.7-21.5 12 0 18 7.7 18 21.5v45.5h19.9zm267-82.4h-29.2V667h-18v24.9h-16.3v16.3h16.3V746c0 18.9 7.7 30 28.3 30 7.7 0 16.3-2.6 22.3-6l-5.2-15.5c-5.2 3.4-11.2 4.3-15.5 4.3-8.6 0-12-5.2-12-13.7v-36.9H448v-16.3zm152.8-1.8c-10.3 0-17.2 5.2-21.5 12v-10.3h-18v82.4h18v-46.4c0-13.7 6-21.5 17.2-21.5 3.4 0 7.7.9 11.2 1.7l5.2-17.2c-3.6-.7-8.7-.7-12.1-.7zM370 698.7c-8.6-6-20.6-8.6-33.5-8.6-20.6 0-34.3 10.3-34.3 26.6 0 13.7 10.3 21.5 28.3 24l8.6.9c9.4 1.7 14.6 4.3 14.6 8.6 0 6-6.9 10.3-18.9 10.3-12 0-21.5-4.3-27.5-8.6l-8.6 13.7c9.4 6.9 22.3 10.3 35.2 10.3 24 0 37.8-11.2 37.8-26.6 0-14.6-11.2-22.3-28.3-24.9l-8.6-.9c-7.7-.9-13.7-2.6-13.7-7.7 0-6 6-9.4 15.5-9.4 10.3 0 20.6 4.3 25.8 6.9l7.6-14.6zm478.9-8.6c-10.3 0-17.2 5.2-21.5 12v-10.3h-18v82.4h18v-46.4c0-13.7 6-21.5 17.2-21.5 3.4 0 7.7.9 11.2 1.7l5.2-17c-3.5-.9-8.6-.9-12.1-.9zm-230 43c0 24.9 17.2 42.9 43.8 42.9 12 0 20.6-2.6 29.2-9.4l-8.6-14.6c-6.9 5.2-13.7 7.7-21.5 7.7-14.6 0-24.9-10.3-24.9-26.6 0-15.5 10.3-25.8 24.9-26.6 7.7 0 14.6 2.6 21.5 7.7l8.6-14.6c-8.6-6.9-17.2-9.4-29.2-9.4-26.6-.1-43.8 18-43.8 42.9zm166.5 0v-41.2h-18v10.3c-6-7.7-14.6-12-25.8-12-23.2 0-41.2 18-41.2 42.9s18 42.9 41.2 42.9c12 0 20.6-4.3 25.8-12v10.3h18v-41.2zm-66.1 0c0-14.6 9.4-26.6 24.9-26.6 14.6 0 24.9 11.2 24.9 26.6 0 14.6-10.3 26.6-24.9 26.6-15.4-.9-24.9-12.1-24.9-26.6zm-215.4-43c-24 0-41.2 17.2-41.2 42.9 0 25.8 17.2 42.9 42.1 42.9 12 0 24-3.4 33.5-11.2l-8.6-12.9c-6.9 5.2-15.5 8.6-24 8.6-11.2 0-22.3-5.2-24.9-19.7h60.9v-6.9c.8-26.5-14.7-43.7-37.8-43.7zm0 15.5c11.2 0 18.9 6.9 20.6 19.7h-42.9c1.7-11.1 9.4-19.7 22.3-19.7zm447.2 27.5v-73.8h-18v42.9c-6-7.7-14.6-12-25.8-12-23.2 0-41.2 18-41.2 42.9s18 42.9 41.2 42.9c12 0 20.6-4.3 25.8-12v10.3h18v-41.2zm-66.1 0c0-14.6 9.4-26.6 24.9-26.6 14.6 0 24.9 11.2 24.9 26.6 0 14.6-10.3 26.6-24.9 26.6-15.5-.9-24.9-12.1-24.9-26.6zm-602.6 0v-41.2h-18v10.3c-6-7.7-14.6-12-25.8-12-23.2 0-41.2 18-41.2 42.9s18 42.9 41.2 42.9c12 0 20.6-4.3 25.8-12v10.3h18v-41.2zm-66.9 0c0-14.6 9.4-26.6 24.9-26.6 14.6 0 24.9 11.2 24.9 26.6 0 14.6-10.3 26.6-24.9 26.6-15.5-.9-24.9-12.1-24.9-26.6z"/><path fill="#FF5A00" d="M364 66.1h270.4v485.8H364z"/><path fill="#EB001B" d="M382 309c0-98.7 46.4-186.3 117.6-242.9C447.2 24.9 381.1 0 309 0 138.2 0 0 138.2 0 309s138.2 309 309 309c72.1 0 138.2-24.9 190.6-66.1C428.3 496.1 382 407.7 382 309z"/><path fill="#F79E1B" d="M999.2 309c0 170.8-138.2 309-309 309-72.1 0-138.2-24.9-190.6-66.1 72.1-56.7 117.6-144.2 117.6-242.9S570.8 122.7 499.6 66.1C551.9 24.9 618 0 690.1 0 861 0 999.2 139.1 999.2 309z"/></svg>

        
    </defs>
</svg>